<svg width="32" height="16" viewBox="0 0 32 16" fill="none" xmlns="http://www.w3.org/2000/svg">
<path d="M7.77273 -1.16825e-05C8.79546 -1.16825e-05 9.7287 0.149136 10.5724 0.447432C11.4162 0.737205 12.1747 1.1122 12.848 1.57243C13.5298 2.03266 14.1264 2.50993 14.6378 3.00425C14.8764 3.22584 15.0852 3.43891 15.2642 3.64345C15.4517 3.83948 15.6349 4.03976 15.8139 4.24431C15.9759 4.03976 16.1463 3.83948 16.3253 3.64345C16.5043 3.44743 16.7173 3.23436 16.9645 3.00425C17.7401 2.25425 18.7031 1.56817 19.8537 0.946011C21.0128 0.315329 22.3466 -1.16825e-05 23.8551 -1.16825e-05C25.2869 -1.16825e-05 26.5909 0.345159 27.767 1.0355C28.9432 1.72584 29.8764 2.65056 30.5668 3.80965C31.2656 4.96874 31.6151 6.24715 31.6151 7.64488C31.6151 8.70169 31.4148 9.69459 31.0142 10.6236C30.6136 11.5525 30.0554 12.3665 29.3395 13.0653C28.6321 13.7642 27.8097 14.3096 26.8722 14.7017C25.9347 15.0937 24.929 15.2898 23.8551 15.2898C22.8324 15.2898 21.8992 15.1491 21.0554 14.8679C20.2116 14.5781 19.4531 14.2116 18.7798 13.7685C18.1065 13.3253 17.5142 12.865 17.0028 12.3878C16.7472 12.1406 16.5256 11.9148 16.3381 11.7102C16.1506 11.5057 15.9759 11.3011 15.8139 11.0966C15.6264 11.3096 15.4389 11.5227 15.2514 11.7358C15.0639 11.9403 14.8509 12.1577 14.6122 12.3878C14.1179 12.848 13.5341 13.304 12.8608 13.7557C12.1875 14.1989 11.4247 14.5653 10.5724 14.8551C9.7287 15.1449 8.79546 15.2898 7.77273 15.2898C6.34091 15.2898 5.03693 14.9489 3.8608 14.267C2.68466 13.5767 1.74716 12.6562 1.0483 11.5057C0.349434 10.3466 2.19047e-06 9.05965 2.19047e-06 7.64488C2.19047e-06 6.59658 0.200286 5.6122 0.600854 4.69175C1.00142 3.7713 1.5554 2.96164 2.26279 2.26277C2.9787 1.55539 3.8054 1.00141 4.7429 0.60084C5.68892 0.200272 6.69887 -1.16825e-05 7.77273 -1.16825e-05ZM4.16762 7.64488C4.16762 8.2926 4.32955 8.88493 4.65341 9.42186C4.97728 9.95027 5.41193 10.3721 5.95739 10.6875C6.50284 10.9943 7.10796 11.1477 7.77273 11.1477C8.5483 11.1477 9.25568 10.9858 9.89489 10.6619C10.5426 10.3295 11.1563 9.89487 11.7358 9.35794C12.0767 9.0426 12.3665 8.74005 12.6051 8.45027C12.8438 8.15198 13.0483 7.88351 13.2188 7.64488C13.0398 7.40624 12.8097 7.12925 12.5284 6.81391C12.2557 6.49857 11.9915 6.22158 11.7358 5.98294C11.1989 5.47158 10.598 5.03692 9.93324 4.67897C9.26847 4.32101 8.5483 4.14203 7.77273 4.14203C7.10796 4.14203 6.50284 4.30397 5.95739 4.62783C5.41193 4.94317 4.97728 5.36931 4.65341 5.90624C4.32955 6.43465 4.16762 7.01419 4.16762 7.64488ZM27.4347 7.64488C27.4347 7.01419 27.2727 6.43465 26.9489 5.90624C26.625 5.36931 26.1903 4.94317 25.6449 4.62783C25.108 4.30397 24.5114 4.14203 23.8551 4.14203C23.3267 4.14203 22.8239 4.22726 22.3466 4.39772C21.8778 4.55965 21.4347 4.78124 21.017 5.06249C20.5994 5.33522 20.2202 5.64203 19.8793 5.98294C19.5724 6.27272 19.2784 6.5838 18.9972 6.91618C18.7244 7.24857 18.5242 7.49147 18.3963 7.64488C18.5923 7.9176 18.8097 8.19459 19.0483 8.47584C19.2869 8.75709 19.5639 9.05112 19.8793 9.35794C20.4418 9.88635 21.0469 10.3167 21.6946 10.6491C22.3423 10.9815 23.0625 11.1477 23.8551 11.1477C24.5114 11.1477 25.108 10.9943 25.6449 10.6875C26.1903 10.3721 26.625 9.95027 26.9489 9.42186C27.2727 8.88493 27.4347 8.2926 27.4347 7.64488Z" fill="#DCE8FF"/>
</svg>
